<svg id="Layer_1" data-name="Layer 1" xmlns="http://www.w3.org/2000/svg" viewBox="0 0 1246.26 1246.04"><defs><style>.cls-1{fill:#00b4d8;}.cls-1,.cls-2{fill-rule:evenodd;}.cls-2{fill:#fff;}</style></defs><path class="cls-1" d="M1613,884.79h0v213.59h0c-89.16,0-171.07,29-238.47,77.76V932.49c73.62-31.11,154.49-47.7,238.47-47.7Zm-407.47,593.07c0,10.36-1,19.7-1,30.06,0,225,183.52,408.51,408.51,408.51h0V2130h0c-343.19,0-622.09-278.91-622.09-622.1,0-188.7,82.95-356.66,214.62-470.71Z" transform="translate(-990.87 -883.98)"/><path class="cls-1" d="M1615,884.79h0v213.59h0c225,0,408.51,183.52,408.51,409.54,0,225-183.52,408.51-408.51,408.51h0V2130h0c343.19,0,622.09-278.91,622.09-622.1,0-344.22-278.9-623.13-622.09-623.13Z" transform="translate(-990.87 -883.98)"/><path class="cls-1" d="M1615,1747.43c131.67,0,239.5-107.83,239.5-239.51,0-132.71-107.83-240.54-239.5-240.54-132.72,0-240.55,107.83-240.55,240.54,0,131.68,107.83,239.51,240.55,239.51Z" transform="translate(-990.87 -883.98)"/><path class="cls-2" d="M2023.55,1507.92c0,226-183.52,408.51-408.51,408.51-218.77,0-397.11-170-408.51-385.7h0c-1-7.25-1-15.55-1-22.81a182.88,182.88,0,0,1,1-23.84V1256c-181.45,222.91-169,652.16,187.66,834.64,60.14,30.07,151.38,36.29,220.85,36.29V1916.43c584.77,13.48,726.81-908.25,67.39-1027.49-86.06-15.55-217.73,7.26-307.94,43.55v243.65c260.25-190.77,649.06-10.37,649.06,331.78Z" transform="translate(-990.87 -883.98)"/></svg>